<?xml version="1.0" encoding="utf-8" standalone="no"?>
<!DOCTYPE svg PUBLIC "-//W3C//DTD SVG 1.1//EN"
  "http://www.w3.org/Graphics/SVG/1.1/DTD/svg11.dtd">
<!-- Created with matplotlib (https://matplotlib.org/) -->
<svg height="253.584pt" version="1.1" viewBox="0 0 371.52 253.584" width="371.52pt" xmlns="http://www.w3.org/2000/svg" xmlns:xlink="http://www.w3.org/1999/xlink">
 <defs>
  <style type="text/css">
*{stroke-linecap:butt;stroke-linejoin:round;}
  </style>
 </defs>
 <g id="figure_1">
  <g id="patch_1">
   <path d="M 0 253.584 
L 371.52 253.584 
L 371.52 0 
L 0 0 
z
" style="fill:#ffffff;"/>
  </g>
  <g id="axes_1">
   <g id="patch_2">
    <path d="M 249.664012 38.835672 
C 240.434349 32.12993 230.206446 26.918553 219.356327 23.393135 
C 208.506208 19.867718 197.168489 18.072 185.759999 18.072 
L 185.76 126.792 
L 249.664012 38.835672 
z
" style="fill:#008000;stroke:#000000;stroke-linejoin:miter;"/>
   </g>
   <g id="patch_3">
    <path d="M 185.759999 18.072 
C 174.351508 18.072 163.01379 19.867719 152.163671 23.393136 
C 141.313552 26.918554 131.085648 32.129931 121.855986 38.835674 
L 185.76 126.792 
L 185.759999 18.072 
z
" style="fill:#ff0000;stroke:#000000;stroke-linejoin:miter;"/>
   </g>
   <g id="patch_4">
    <path d="M 121.855986 38.835674 
C 112.626323 45.541416 104.509413 53.658327 97.803671 62.887989 
C 91.097929 72.117652 85.886552 82.345556 82.361135 93.195675 
L 185.76 126.792 
L 121.855986 38.835674 
z
" style="fill:#ff0000;stroke:#000000;stroke-linejoin:miter;"/>
   </g>
   <g id="patch_5">
    <path d="M 82.361135 93.195675 
C 78.835718 104.045794 77.04 115.383513 77.04 126.792003 
C 77.04 138.200494 78.835719 149.538212 82.361137 160.388331 
L 185.76 126.792 
L 82.361135 93.195675 
z
" style="fill:#ff0000;stroke:#000000;stroke-linejoin:miter;"/>
   </g>
   <g id="patch_6">
    <path d="M 82.361137 160.388331 
C 85.886555 171.23845 91.097932 181.466353 97.803675 190.696016 
C 104.509418 199.925678 112.626328 208.042588 121.855991 214.74833 
L 185.76 126.792 
L 82.361137 160.388331 
z
" style="fill:#ff0000;stroke:#000000;stroke-linejoin:miter;"/>
   </g>
   <g id="patch_7">
    <path d="M 121.855991 214.74833 
C 131.085654 221.454072 141.313558 226.665449 152.163678 230.190866 
C 163.013797 233.716282 174.351515 235.512 185.760006 235.511999 
L 185.76 126.792 
L 121.855991 214.74833 
z
" style="fill:#0000ff;stroke:#000000;stroke-linejoin:miter;"/>
   </g>
   <g id="patch_8">
    <path d="M 185.760006 235.511999 
C 197.168496 235.511999 208.506215 233.71628 219.356334 230.190862 
C 230.206453 226.665444 240.434356 221.454066 249.664018 214.748323 
L 185.76 126.792 
L 185.760006 235.511999 
z
" style="fill:#0000ff;stroke:#000000;stroke-linejoin:miter;"/>
   </g>
   <g id="patch_9">
    <path d="M 249.664018 214.748323 
C 258.89368 208.04258 267.01059 199.925669 273.716332 190.696006 
C 280.422073 181.466343 285.63345 171.238439 289.158866 160.38832 
L 185.76 126.792 
L 249.664018 214.748323 
z
" style="fill:#0000ff;stroke:#000000;stroke-linejoin:miter;"/>
   </g>
   <g id="patch_10">
    <path d="M 289.158866 160.38832 
C 292.684283 149.5382 294.48 138.200482 294.479999 126.791991 
C 294.479998 115.383501 292.684279 104.045782 289.158861 93.195664 
L 185.76 126.792 
L 289.158866 160.38832 
z
" style="fill:#0000ff;stroke:#000000;stroke-linejoin:miter;"/>
   </g>
   <g id="patch_11">
    <path d="M 289.158861 93.195664 
C 285.633443 82.345545 280.422065 72.117642 273.716321 62.88798 
C 267.010578 53.658317 258.893667 45.541408 249.664004 38.835666 
L 185.76 126.792 
L 289.158861 93.195664 
z
" style="fill:#0000ff;stroke:#000000;stroke-linejoin:miter;"/>
   </g>
   <g id="matplotlib.axis_1"/>
   <g id="matplotlib.axis_2"/>
   <g id="text_1">
    <path d="M 213.872116 58.878295 
L 204.702241 58.878295 
L 203.254366 63.022045 
L 197.355616 63.022045 
L 205.779616 40.275295 
L 212.775241 40.275295 
L 221.199241 63.022045 
L 215.305366 63.022045 
z
M 206.164741 54.656545 
L 212.394991 54.656545 
L 209.284741 45.608545 
z
" style="fill:#ffffff;stroke:#000000;stroke-width:3;"/>
    <path d="M 213.872116 58.878295 
L 204.702241 58.878295 
L 203.254366 63.022045 
L 197.355616 63.022045 
L 205.779616 40.275295 
L 212.775241 40.275295 
L 221.199241 63.022045 
L 215.305366 63.022045 
z
M 206.164741 54.656545 
L 212.394991 54.656545 
L 209.284741 45.608545 
z
" style="fill:#ffffff;"/>
   </g>
   <g id="text_2">
    <path d="M 133.645635 178.886061 
Q 132.027135 179.724561 130.27701 180.148686 
Q 128.526885 180.577686 126.62076 180.577686 
Q 120.93651 180.577686 117.616635 177.399186 
Q 114.29676 174.220686 114.29676 168.785061 
Q 114.29676 163.329936 117.616635 160.156311 
Q 120.93651 156.977811 126.62076 156.977811 
Q 128.526885 156.977811 130.27701 157.406811 
Q 132.027135 157.830936 133.645635 158.669436 
L 133.645635 163.373811 
Q 132.01251 162.262311 130.428135 161.745561 
Q 128.84376 161.228811 127.093635 161.228811 
Q 123.954135 161.228811 122.15526 163.242186 
Q 120.36126 165.250686 120.36126 168.785061 
Q 120.36126 172.304811 122.15526 174.318186 
Q 123.954135 176.326686 127.093635 176.326686 
Q 128.84376 176.326686 130.428135 175.809936 
Q 132.01251 175.288311 133.645635 174.176811 
z
" style="fill:#ffffff;stroke:#000000;stroke-width:3;"/>
    <path d="M 133.645635 178.886061 
Q 132.027135 179.724561 130.27701 180.148686 
Q 128.526885 180.577686 126.62076 180.577686 
Q 120.93651 180.577686 117.616635 177.399186 
Q 114.29676 174.220686 114.29676 168.785061 
Q 114.29676 163.329936 117.616635 160.156311 
Q 120.93651 156.977811 126.62076 156.977811 
Q 128.526885 156.977811 130.27701 157.406811 
Q 132.027135 157.830936 133.645635 158.669436 
L 133.645635 163.373811 
Q 132.01251 162.262311 130.428135 161.745561 
Q 128.84376 161.228811 127.093635 161.228811 
Q 123.954135 161.228811 122.15526 163.242186 
Q 120.36126 165.250686 120.36126 168.785061 
Q 120.36126 172.304811 122.15526 174.318186 
Q 123.954135 176.326686 127.093635 176.326686 
Q 128.84376 176.326686 130.428135 175.809936 
Q 132.01251 175.288311 133.645635 174.176811 
z
" style="fill:#ffffff;"/>
   </g>
   <g id="text_3">
    <path d="M 247.4123 76.730811 
Q 248.801675 76.730811 249.513425 76.121436 
Q 250.23005 75.512061 250.23005 74.322561 
Q 250.23005 73.147686 249.513425 72.533436 
Q 248.801675 71.914311 247.4123 71.914311 
L 244.170425 71.914311 
L 244.170425 76.730811 
z
M 247.612175 86.675811 
Q 249.376925 86.675811 250.26905 85.929936 
Q 251.161175 85.184061 251.161175 83.677686 
Q 251.161175 82.195686 250.2788 81.459561 
Q 249.396425 80.718561 247.612175 80.718561 
L 244.170425 80.718561 
L 244.170425 86.675811 
z
M 253.0673 78.495561 
Q 254.953925 79.046436 255.987425 80.523561 
Q 257.0258 82.000686 257.0258 84.145686 
Q 257.0258 87.436311 254.8028 89.054811 
Q 252.5798 90.668436 248.0363 90.668436 
L 238.3058 90.668436 
L 238.3058 67.921686 
L 247.11005 67.921686 
Q 251.84855 67.921686 253.97405 69.354936 
Q 256.09955 70.788186 256.09955 73.942311 
Q 256.09955 75.599811 255.31955 76.764936 
Q 254.544425 77.930061 253.0673 78.495561 
z
" style="fill:#ffffff;stroke:#000000;stroke-width:3;"/>
    <path d="M 247.4123 76.730811 
Q 248.801675 76.730811 249.513425 76.121436 
Q 250.23005 75.512061 250.23005 74.322561 
Q 250.23005 73.147686 249.513425 72.533436 
Q 248.801675 71.914311 247.4123 71.914311 
L 244.170425 71.914311 
L 244.170425 76.730811 
z
M 247.612175 86.675811 
Q 249.376925 86.675811 250.26905 85.929936 
Q 251.161175 85.184061 251.161175 83.677686 
Q 251.161175 82.195686 250.2788 81.459561 
Q 249.396425 80.718561 247.612175 80.718561 
L 244.170425 80.718561 
L 244.170425 86.675811 
z
M 253.0673 78.495561 
Q 254.953925 79.046436 255.987425 80.523561 
Q 257.0258 82.000686 257.0258 84.145686 
Q 257.0258 87.436311 254.8028 89.054811 
Q 252.5798 90.668436 248.0363 90.668436 
L 238.3058 90.668436 
L 238.3058 67.921686 
L 247.11005 67.921686 
Q 251.84855 67.921686 253.97405 69.354936 
Q 256.09955 70.788186 256.09955 73.942311 
Q 256.09955 75.599811 255.31955 76.764936 
Q 254.544425 77.930061 253.0673 78.495561 
z
" style="fill:#ffffff;"/>
   </g>
  </g>
 </g>
</svg>
