<?xml version="1.0" encoding="utf-8" standalone="no"?>
<!DOCTYPE svg PUBLIC "-//W3C//DTD SVG 1.1//EN"
  "http://www.w3.org/Graphics/SVG/1.1/DTD/svg11.dtd">
<!-- Created with matplotlib (https://matplotlib.org/) -->
<svg height="253.584pt" version="1.1" viewBox="0 0 371.52 253.584" width="371.52pt" xmlns="http://www.w3.org/2000/svg" xmlns:xlink="http://www.w3.org/1999/xlink">
 <defs>
  <style type="text/css">
*{stroke-linecap:butt;stroke-linejoin:round;}
  </style>
 </defs>
 <g id="figure_1">
  <g id="patch_1">
   <path d="M 0 253.584 
L 371.52 253.584 
L 371.52 0 
L 0 0 
z
" style="fill:#ffffff;"/>
  </g>
  <g id="axes_1">
   <g id="patch_2">
    <path d="M 249.664012 38.835672 
C 240.434349 32.12993 230.206446 26.918553 219.356327 23.393135 
C 208.506208 19.867718 197.168489 18.072 185.759999 18.072 
L 185.76 126.792 
L 249.664012 38.835672 
z
" style="fill:#008000;stroke:#000000;stroke-linejoin:miter;"/>
   </g>
   <g id="patch_3">
    <path d="M 185.759999 18.072 
C 174.351508 18.072 163.01379 19.867719 152.163671 23.393136 
C 141.313552 26.918554 131.085648 32.129931 121.855986 38.835674 
L 185.76 126.792 
L 185.759999 18.072 
z
" style="fill:#ff0000;stroke:#000000;stroke-linejoin:miter;"/>
   </g>
   <g id="patch_4">
    <path d="M 121.855986 38.835674 
C 112.626323 45.541416 104.509413 53.658327 97.803671 62.887989 
C 91.097929 72.117652 85.886552 82.345556 82.361135 93.195675 
L 185.76 126.792 
L 121.855986 38.835674 
z
" style="fill:#ff0000;stroke:#000000;stroke-linejoin:miter;"/>
   </g>
   <g id="patch_5">
    <path d="M 82.361135 93.195675 
C 78.835718 104.045794 77.04 115.383513 77.04 126.792003 
C 77.04 138.200494 78.835719 149.538212 82.361137 160.388331 
L 185.76 126.792 
L 82.361135 93.195675 
z
" style="fill:#ff0000;stroke:#000000;stroke-linejoin:miter;"/>
   </g>
   <g id="patch_6">
    <path d="M 82.361137 160.388331 
C 85.886555 171.23845 91.097932 181.466353 97.803675 190.696016 
C 104.509418 199.925678 112.626328 208.042588 121.855991 214.74833 
L 185.76 126.792 
L 82.361137 160.388331 
z
" style="fill:#ff0000;stroke:#000000;stroke-linejoin:miter;"/>
   </g>
   <g id="patch_7">
    <path d="M 121.855991 214.74833 
C 131.085654 221.454072 141.313558 226.665449 152.163678 230.190866 
C 163.013797 233.716282 174.351515 235.512 185.760006 235.511999 
L 185.76 126.792 
L 121.855991 214.74833 
z
" style="fill:#0000ff;stroke:#000000;stroke-linejoin:miter;"/>
   </g>
   <g id="patch_8">
    <path d="M 185.760006 235.511999 
C 197.168496 235.511999 208.506215 233.71628 219.356334 230.190862 
C 230.206453 226.665444 240.434356 221.454066 249.664018 214.748323 
L 185.76 126.792 
L 185.760006 235.511999 
z
" style="fill:#0000ff;stroke:#000000;stroke-linejoin:miter;"/>
   </g>
   <g id="patch_9">
    <path d="M 249.664018 214.748323 
C 258.89368 208.04258 267.01059 199.925669 273.716332 190.696006 
C 280.422073 181.466343 285.63345 171.238439 289.158866 160.38832 
L 185.76 126.792 
L 249.664018 214.748323 
z
" style="fill:#0000ff;stroke:#000000;stroke-linejoin:miter;"/>
   </g>
   <g id="patch_10">
    <path d="M 289.158866 160.38832 
C 292.684283 149.5382 294.48 138.200482 294.479999 126.791991 
C 294.479998 115.383501 292.684279 104.045782 289.158861 93.195664 
L 185.76 126.792 
L 289.158866 160.38832 
z
" style="fill:#0000ff;stroke:#000000;stroke-linejoin:miter;"/>
   </g>
   <g id="patch_11">
    <path d="M 289.158861 93.195664 
C 285.633443 82.345545 280.422065 72.117642 273.716321 62.88798 
C 267.010578 53.658317 258.893667 45.541408 249.664004 38.835666 
L 185.76 126.792 
L 289.158861 93.195664 
z
" style="fill:#0000ff;stroke:#000000;stroke-linejoin:miter;"/>
   </g>
   <g id="matplotlib.axis_1"/>
   <g id="matplotlib.axis_2"/>
   <g id="text_1">
    <path d="M 213.783757 58.79242 
L 204.790226 58.79242 
L 203.370194 62.856482 
L 197.584882 62.856482 
L 205.846882 40.54717 
L 212.707976 40.54717 
L 220.969976 62.856482 
L 215.189444 62.856482 
z
M 206.224601 54.651857 
L 212.335038 54.651857 
L 209.284601 45.777857 
z
" style="fill:#ffffff;stroke:#000000;stroke-width:3;"/>
    <path d="M 213.783757 58.79242 
L 204.790226 58.79242 
L 203.370194 62.856482 
L 197.584882 62.856482 
L 205.846882 40.54717 
L 212.707976 40.54717 
L 220.969976 62.856482 
L 215.189444 62.856482 
z
M 206.224601 54.651857 
L 212.335038 54.651857 
L 209.284601 45.777857 
z
" style="fill:#ffffff;"/>
   </g>
   <g id="text_2">
    <path d="M 133.463807 178.744499 
Q 131.876432 179.566874 130.159963 179.982842 
Q 128.443494 180.403592 126.574026 180.403592 
Q 120.999088 180.403592 117.743057 177.286217 
Q 114.487026 174.168842 114.487026 168.837749 
Q 114.487026 163.48753 117.743057 160.374936 
Q 120.999088 157.257561 126.574026 157.257561 
Q 128.443494 157.257561 130.159963 157.678311 
Q 131.876432 158.09428 133.463807 158.916655 
L 133.463807 163.530561 
Q 131.862088 162.440436 130.308182 161.933624 
Q 128.754276 161.426811 127.037807 161.426811 
Q 123.958682 161.426811 122.194401 163.401467 
Q 120.434901 165.371342 120.434901 168.837749 
Q 120.434901 172.289811 122.194401 174.264467 
Q 123.958682 176.234342 127.037807 176.234342 
Q 128.754276 176.234342 130.308182 175.72753 
Q 131.862088 175.215936 133.463807 174.125811 
z
" style="fill:#ffffff;stroke:#000000;stroke-width:3;"/>
    <path d="M 133.463807 178.744499 
Q 131.876432 179.566874 130.159963 179.982842 
Q 128.443494 180.403592 126.574026 180.403592 
Q 120.999088 180.403592 117.743057 177.286217 
Q 114.487026 174.168842 114.487026 168.837749 
Q 114.487026 163.48753 117.743057 160.374936 
Q 120.999088 157.257561 126.574026 157.257561 
Q 128.443494 157.257561 130.159963 157.678311 
Q 131.876432 158.09428 133.463807 158.916655 
L 133.463807 163.530561 
Q 131.862088 162.440436 130.308182 161.933624 
Q 128.754276 161.426811 127.037807 161.426811 
Q 123.958682 161.426811 122.194401 163.401467 
Q 120.434901 165.371342 120.434901 168.837749 
Q 120.434901 172.289811 122.194401 174.264467 
Q 123.958682 176.234342 127.037807 176.234342 
Q 128.754276 176.234342 130.308182 175.72753 
Q 131.862088 175.215936 133.463807 174.125811 
z
" style="fill:#ffffff;"/>
   </g>
   <g id="text_3">
    <path d="M 247.410706 76.833279 
Q 248.773362 76.833279 249.471425 76.235623 
Q 250.174269 75.637967 250.174269 74.471342 
Q 250.174269 73.319061 249.471425 72.716623 
Q 248.773362 72.109404 247.410706 72.109404 
L 244.231175 72.109404 
L 244.231175 76.833279 
z
M 247.606737 86.587029 
Q 249.33755 86.587029 250.212519 85.855498 
Q 251.087487 85.123967 251.087487 83.646561 
Q 251.087487 82.193061 250.222081 81.471092 
Q 249.356675 80.744342 247.606737 80.744342 
L 244.231175 80.744342 
L 244.231175 86.587029 
z
M 252.956956 78.564092 
Q 254.8073 79.104373 255.820925 80.553092 
Q 256.839331 82.001811 256.839331 84.105561 
Q 256.839331 87.332904 254.659081 88.920279 
Q 252.478831 90.502873 248.022706 90.502873 
L 238.479331 90.502873 
L 238.479331 68.193561 
L 247.114269 68.193561 
Q 251.761644 68.193561 253.846269 69.599248 
Q 255.930894 71.004936 255.930894 74.098404 
Q 255.930894 75.724029 255.165894 76.866748 
Q 254.405675 78.009467 252.956956 78.564092 
z
" style="fill:#ffffff;stroke:#000000;stroke-width:3;"/>
    <path d="M 247.410706 76.833279 
Q 248.773362 76.833279 249.471425 76.235623 
Q 250.174269 75.637967 250.174269 74.471342 
Q 250.174269 73.319061 249.471425 72.716623 
Q 248.773362 72.109404 247.410706 72.109404 
L 244.231175 72.109404 
L 244.231175 76.833279 
z
M 247.606737 86.587029 
Q 249.33755 86.587029 250.212519 85.855498 
Q 251.087487 85.123967 251.087487 83.646561 
Q 251.087487 82.193061 250.222081 81.471092 
Q 249.356675 80.744342 247.606737 80.744342 
L 244.231175 80.744342 
L 244.231175 86.587029 
z
M 252.956956 78.564092 
Q 254.8073 79.104373 255.820925 80.553092 
Q 256.839331 82.001811 256.839331 84.105561 
Q 256.839331 87.332904 254.659081 88.920279 
Q 252.478831 90.502873 248.022706 90.502873 
L 238.479331 90.502873 
L 238.479331 68.193561 
L 247.114269 68.193561 
Q 251.761644 68.193561 253.846269 69.599248 
Q 255.930894 71.004936 255.930894 74.098404 
Q 255.930894 75.724029 255.165894 76.866748 
Q 254.405675 78.009467 252.956956 78.564092 
z
" style="fill:#ffffff;"/>
   </g>
  </g>
 </g>
</svg>
